<svg xmlns="http://www.w3.org/2000/svg" width="100" height="100"><path d="M0 0h100v100H0z"/><g stroke-width="21.207" fill="none"><path d="M91.575 67.22C87.167 77.86 78.7 86.82 67.22 91.576" stroke="#00ff40" transform="matrix(.69275 0 0 .72217 15.363 13.891)"/><path d="M91.575 32.78c4.755 11.48 4.407 23.8 0 34.44" stroke="#80ff00" transform="matrix(.69275 0 0 .72217 15.363 13.891)"/><path d="M67.22 8.425C77.86 12.833 86.82 21.3 91.576 32.78" stroke="#ffbf00" transform="matrix(.69275 0 0 .72217 15.363 13.891)"/><path d="M32.78 8.425c11.48-4.755 23.8-4.407 34.44 0" stroke="red" transform="matrix(.69275 0 0 .72217 15.363 13.891)"/><path d="M8.425 32.78C12.833 22.14 21.3 13.18 32.78 8.424" stroke="#ff00bf" transform="matrix(.69275 0 0 .72217 15.363 13.891)"/><path d="M8.425 67.22c-4.755-11.48-4.407-23.8 0-34.44" stroke="#8000ff" transform="matrix(.69275 0 0 .72217 15.363 13.891)"/><path d="M32.78 91.575C22.14 87.167 13.18 78.7 8.424 67.22" stroke="#0040ff" transform="matrix(.69275 0 0 .72217 15.363 13.891)"/><path d="M67.22 91.575c-11.48 4.755-23.8 4.407-34.44 0" stroke="#0ff" transform="matrix(.69275 0 0 .72217 15.363 13.891)"/></g></svg>